<?xml version="1.0" encoding="utf-8"?>
<!-- Generator: Adobe Illustrator 15.1.0, SVG Export Plug-In . SVG Version: 6.00 Build 0)  -->
<!DOCTYPE svg PUBLIC "-//W3C//DTD SVG 1.1//EN" "http://www.w3.org/Graphics/SVG/1.1/DTD/svg11.dtd">
<svg version="1.1" id="Layer_1" xmlns="http://www.w3.org/2000/svg" xmlns:xlink="http://www.w3.org/1999/xlink" x="0px" y="0px"
	 width="465.437px" height="465.607px" viewBox="-210 -210 465.437 465.607" enable-background="new -210 -210 465.437 465.607"
	 xml:space="preserve">
<path fill="#DD1F2B" d="M22.804-210c128.58,0,232.804,104.224,232.804,232.804S151.384,255.608,22.804,255.608
	S-210,151.384-210,22.804S-105.776-210,22.804-210z"/>
<g>
	<path fill="#FFFFFF" d="M-2.519-47.625c-3.209-2.131-6.789-3.201-10.683-3.201h-57.149c-1.864,0-3.949,0.33-6.183,0.975
		s-4.413,1.621-6.505,2.926c-2.092,1.306-3.902,2.793-5.388,4.468c-1.495,1.676-2.47,3.524-2.793,5.569l-20.162,114.299
		c-0.464,2.589-0.134,4.775,0.929,6.545c1.07,1.754,2.604,3.162,4.555,4.185c1.943,1.023,4.177,1.715,6.592,2.085
		c2.47,0.378,4.696,0.559,6.734,0.559c2.234,0,4.649-0.181,7.205-0.559c2.612-0.37,5.019-1.062,7.347-2.085
		c2.329-1.022,4.272-2.431,5.9-4.185c1.629-1.777,2.643-4.052,3.163-6.836l12.775-72.481c0.503-2.974,1.675-6.128,3.343-9.479
		c1.715-3.344,3.807-6.466,6.223-9.337c2.47-2.887,5.254-5.302,8.267-7.254c3.021-1.95,6.175-3.201,9.479-3.76
		c2.462-0.369,5.294-0.503,8.551-0.409c3.249,0.087,6.411-0.149,9.479-0.7c3.067-0.559,5.711-1.628,7.937-3.21
		c2.234-1.581,3.674-4.326,4.366-8.22C2.075-42.19,0.73-45.478-2.519-47.625z"/>
	<path fill="#FFFFFF" d="M101.696,62.843c-2.274,3.446-5.105,5.986-8.465,7.662c-3.382,1.676-7.197,2.736-11.422,3.209
		c-4.272,0.457-8.913,0.692-13.932,0.692c-4.642,0-9.109-0.235-13.428-0.692c-4.272-0.48-7.937-1.533-10.958-3.209
		c-3.067-1.676-5.348-4.187-6.796-7.527c-1.479-3.345-1.676-7.899-0.646-13.648c0.921-5.406,2.55-9.716,4.79-12.973
		c2.273-3.249,5.02-5.806,8.222-7.653c3.161-1.857,6.788-3.077,10.776-3.635c3.995-0.559,8.322-0.842,12.964-0.842h1.675
		c4.649,0,9.196,0.142,13.57,0.425c4.413,0.275,8.182,1.156,11.249,2.643c3.1,1.495,5.333,3.91,6.82,7.253
		c1.494,3.344,1.676,8.079,0.55,14.207C105.644,54.709,103.976,59.398,101.696,62.843z M123.909,96.424
		c1.479,0,3.115-0.417,4.83-1.243c1.723-0.841,3.406-1.855,5.019-3.066c1.573-1.212,2.981-2.604,4.226-4.186
		c1.163-1.581,1.896-3.115,2.187-4.602l16.299-92.541c1.117-6.316,0.936-11.808-0.59-16.449c-1.495-4.648-3.91-8.464-7.293-11.43
		c-3.397-2.973-7.574-5.16-12.507-6.553c-4.972-1.392-10.313-2.092-16.071-2.092H39.999c-3.721,0-6.741,1.345-9.109,4.043
		c-2.329,2.69-3.76,5.625-4.318,8.779c-0.551,3.154-0.134,6.128,1.21,8.92c1.394,2.785,3.903,4.177,7.671,4.177h62.443
		c4.838,0,9.109,1.211,12.878,3.627c3.705,2.415,5.152,6.135,4.255,11.146c-0.685,4.09-2.14,6.93-4.255,8.504
		c-2.147,1.581-5.169,2.368-9.07,2.368H68.523c-8.905,0-17.274,0.377-24.984,1.117c-7.756,0.739-14.639,2.65-20.68,5.711
		c-6.042,3.06-11.146,7.669-15.378,13.797C3.216,32.58,0.148,41.038-1.716,51.807C-2.699,57.211-2.975,62.59-2.51,67.989
		c0.463,5.388,1.722,10.17,3.901,14.347c2.14,4.192,5.247,7.575,9.337,10.18c4.09,2.596,9.196,3.894,15.332,3.894h97.85V96.424z"/>
</g>
</svg>
