<?xml version="1.0" encoding="utf-8"?>
<!-- Generator: Adobe Illustrator 15.1.0, SVG Export Plug-In  -->
<!DOCTYPE svg PUBLIC "-//W3C//DTD SVG 1.1//EN" "http://www.w3.org/Graphics/SVG/1.1/DTD/svg11.dtd" [
	<!ENTITY ns_flows "http://ns.adobe.com/Flows/1.0/">
]>
<svg version="1.1"
	 xmlns="http://www.w3.org/2000/svg" xmlns:xlink="http://www.w3.org/1999/xlink" xmlns:a="http://ns.adobe.com/AdobeSVGViewerExtensions/3.0/"
	 x="0px" y="0px" width="220px" height="50px" viewBox="-41.2 -6.3 220 50" enable-background="new -41.2 -6.3 220 50"
	 xml:space="preserve">
<defs>
</defs>
<path fill-rule="evenodd" clip-rule="evenodd" fill="#222222" d="M64.4,26c0,0,0,0.1,0,0.1c0,0,0,0.1,0,0.1L64,27.8h-2
	c-0.2,0-0.4,0-0.6,0c-0.2,0-0.4,0.1-0.5,0.1c-0.4,0.2-0.7,0.6-1,1.1c-0.3,0.5-0.5,1.1-0.7,1.7c-0.2,0.5-0.3,1-0.4,1.4
	c-0.1,0.5-0.1,0.8-0.1,1.1v0v0c0,0.3,0.1,0.6,0.2,0.9c0.1,0.3,0.3,0.5,0.6,0.7c0.1,0.1,0.3,0.1,0.4,0.1c0.1,0,0.3,0.1,0.4,0.1h1.1
	h0.1c0,0,0.1,0,0.1,0c0.1,0,0.1,0,0.2,0c0,0,0.1,0,0.1-0.1c0,0,0,0,0.1,0c0,0,0,0,0.1,0c0,0,0.1,0,0.1-0.1c0,0,0.1-0.1,0.1-0.1
	c0,0,0,0,0,0c0,0,0,0,0,0l1-1.7c0,0,0,0-0.1,0c0,0-0.1,0-0.1,0.1c0,0,0,0,0,0c0,0,0,0,0,0c0,0-0.1,0-0.1,0.1c0,0,0,0-0.1,0
	c0,0-0.1,0-0.1,0c0,0-0.1,0-0.1,0c-0.1,0-0.2,0-0.3,0.1c-0.1,0-0.2,0-0.3,0c0,0-0.1,0-0.1,0c0,0-0.1,0-0.1,0c-0.2,0-0.4,0-0.6-0.1
	c-0.2-0.1-0.3-0.3-0.4-0.5c0,0,0-0.1,0-0.1c0,0,0-0.1,0-0.1c0-0.1,0-0.3,0.1-0.5c0-0.2,0.1-0.3,0.1-0.5c0-0.1,0.1-0.2,0.1-0.3
	c0-0.1,0.1-0.2,0.1-0.2c0.1-0.1,0.1-0.3,0.2-0.4l0.1-0.3c0.2-0.5,0.4-0.7,0.6-0.8c0.2-0.1,0.4-0.2,0.5-0.2h0.1h0.1h0.1h0.1h0.1
	c0,0,0.1,0,0.1,0h1l-1.3,5.3c0,0,0,0,0,0.1v0.1c0,0.1,0,0.1,0,0.1c0,0,0,0.1,0.1,0.1c0.1,0,0.1,0.1,0.2,0.1c0.1,0,0.1,0,0.3,0H63H63
	h1.7c0,0,0,0-0.1,0c0,0,0,0-0.1,0c-0.1,0-0.2-0.1-0.2-0.1c-0.1-0.1-0.1-0.1-0.1-0.2c0,0,0-0.1,0-0.1c0,0,0-0.1,0-0.1v-0.1v-0.1
	l2-8.1c0-0.1,0-0.1,0-0.2c0-0.1-0.1-0.1-0.1-0.2c0,0-0.1-0.1-0.1-0.1c-0.1,0-0.1,0-0.2,0h-1.8c0,0,0,0,0.1,0c0,0,0,0,0.1,0
	C64.2,25.9,64.3,25.9,64.4,26C64.3,25.9,64.3,25.9,64.4,26L64.4,26C64.4,26,64.4,26,64.4,26z"/>
<path fill-rule="evenodd" clip-rule="evenodd" fill="#222222" d="M71,34.2c0.3-0.2,0.5-0.6,0.8-1c0.2-0.4,0.4-0.9,0.5-1.4
	c0.1-0.4,0.2-0.8,0.3-1.2c0.1-0.4,0.1-0.7,0.1-1v0v0v0c-0.1-0.9-0.4-1.4-0.9-1.6c-0.5-0.2-1.1-0.3-1.8-0.3h0h0v1.3h0h0h0
	c0.2,0,0.4,0,0.5,0.1c0.2,0.1,0.3,0.2,0.3,0.3c0,0.1,0.1,0.2,0.1,0.3c0,0.1,0,0.2,0,0.3c0,0.2,0,0.5-0.1,0.7c0,0.3-0.1,0.5-0.2,0.8
	c-0.1,0.3-0.2,0.6-0.3,0.9c-0.1,0.3-0.3,0.6-0.4,0.8c0,0,0,0.1-0.1,0.1c0,0,0,0.1-0.1,0.1c-0.1,0.1-0.2,0.3-0.4,0.3
	c-0.2,0.1-0.4,0.1-0.6,0.1h0h0c-0.3,0-0.5-0.1-0.8-0.3c-0.2-0.2-0.4-0.4-0.4-0.8v0v0v0c0-0.2,0-0.5,0.1-0.8c0.1-0.3,0.1-0.7,0.2-1
	c0.1-0.3,0.2-0.6,0.3-0.9c0.1-0.3,0.2-0.5,0.4-0.7c0.1-0.1,0.2-0.3,0.4-0.3c0.1-0.1,0.3-0.1,0.4-0.2c0.1,0,0.2,0,0.3,0
	c0.1,0,0.2,0,0.2,0v-1.3h-0.1h-0.1c-0.5,0-0.9,0.1-1.3,0.2c-0.4,0.2-0.8,0.4-1.1,0.9c-0.3,0.3-0.5,0.7-0.7,1.1
	c-0.2,0.4-0.3,0.8-0.4,1.2c-0.1,0.3-0.1,0.6-0.2,0.9c0,0.3-0.1,0.6-0.1,0.9c0,0.3,0,0.6,0.1,0.9c0.1,0.3,0.1,0.5,0.2,0.7
	c0.2,0.2,0.4,0.4,0.8,0.6c0.4,0.1,0.9,0.2,1.3,0.2c0.1,0,0.3,0,0.4,0c0.1,0,0.3,0,0.4-0.1c0.3-0.1,0.6-0.1,0.9-0.3
	C70.5,34.6,70.8,34.5,71,34.2z"/>
<path fill-rule="evenodd" clip-rule="evenodd" fill="#222222" d="M78.1,28.5L78.1,28.5C78.1,28.6,78.1,28.6,78.1,28.5
	c0,0.2,0,0.2,0.1,0.3c0,0,0.1,0.1,0.1,0.1c0,0,0,0,0,0c0,0,0,0,0,0c0,0,0.1,0.1,0.2,0.1c0.1,0,0.1,0,0.2,0h2.1c0.1,0,0.1,0,0.2,0
	c0.1,0,0.1,0,0.1,0.1c0,0,0,0.1,0.1,0.1c0,0.1,0,0.1,0,0.2v0v0v0c0,0,0,0.1,0,0.1v0.1c0,0.1,0,0.1,0,0.2c0,0.1-0.1,0.1-0.1,0.1
	c0,0,0,0-0.1,0c0,0,0,0-0.1,0c0,0,0,0-0.1,0c0,0,0,0-0.1,0h0h0c0,0,0,0,0,0c0,0,0,0,0,0h-2.1h-0.1c0,0-0.1,0-0.1,0
	c-0.2,0-0.4,0-0.6,0.1c-0.2,0.1-0.3,0.2-0.4,0.3c0,0.1-0.1,0.1-0.1,0.2c0,0.1-0.1,0.2-0.1,0.3c-0.1,0.2-0.2,0.5-0.3,0.8
	c-0.1,0.3-0.2,0.6-0.3,1c0,0.2-0.1,0.4-0.1,0.5c0,0.2,0,0.4,0,0.5c0,0.2,0,0.3,0,0.5c0,0.1,0.1,0.3,0.1,0.4c0.1,0.1,0.1,0.2,0.2,0.3
	c0.1,0.1,0.2,0.1,0.3,0.2c0.1,0,0.1,0.1,0.2,0.1c0.1,0,0.1,0,0.2,0h0h0h1.5c0,0,0.1,0,0.1,0l0.1-0.1c0,0,0,0,0.1,0c0,0,0,0,0.1,0
	c0,0,0,0,0,0c0,0,0,0,0.1,0c0,0,0,0,0,0c0,0,0,0,0-0.1c0,0,0,0,0,0c0,0,0,0,0,0l0.8-1.3h-1.8c0,0,0,0,0,0c0,0,0,0,0,0c0,0,0,0,0,0
	c0,0,0,0,0,0c0,0-0.1,0-0.1,0c0,0,0,0,0,0c0,0-0.1-0.1-0.1-0.2c0-0.1,0-0.1,0-0.2c0-0.1,0-0.1,0-0.2c0-0.1,0-0.2,0.1-0.2
	c0-0.1,0.1-0.2,0.1-0.3c0-0.1,0.1-0.2,0.1-0.2c0-0.1,0.1-0.1,0.1-0.2c0-0.1,0.1-0.1,0.1-0.1c0.1-0.1,0.2-0.2,0.3-0.2
	c0.1,0,0.2,0,0.4,0h1.4l-0.8,3.3c0,0,0,0,0,0.1c0,0,0,0,0,0.1c0,0,0,0,0,0.1c0,0,0,0,0,0.1c0,0,0,0,0,0c0,0,0,0,0,0c0,0,0,0,0,0
	c0,0,0,0,0,0c0,0,0,0,0.1,0c0,0,0,0,0.1,0c0,0,0,0,0.1,0c0,0,0,0,0.1,0h2.1c0,0,0,0,0,0c0,0,0,0,0,0c0,0-0.1,0-0.1,0
	c0,0-0.1,0-0.1-0.1c0,0,0,0,0,0s0,0,0,0c0,0,0-0.1,0-0.1c0-0.1,0-0.1,0-0.2c0-0.1,0-0.2,0-0.3c0-0.1,0-0.2,0.1-0.3l1-4.9
	c0-0.1,0-0.1,0-0.2c0-0.1,0-0.1,0-0.2v0v0c0-0.1-0.1-0.3-0.1-0.4c-0.1-0.1-0.1-0.2-0.2-0.3c-0.1-0.1-0.3-0.2-0.4-0.3
	c-0.2,0-0.3-0.1-0.5-0.1h-3.7L78.1,28.5z"/>
<path fill-rule="evenodd" clip-rule="evenodd" fill="#222222" d="M84.9,26.1C84.9,26.1,84.9,26.1,84.9,26.1
	C84.9,26.1,84.9,26.1,84.9,26.1c0,0.1,0,0.1,0,0.1v0c0,0,0,0.1,0,0.1c0,0,0,0.1,0,0.1c0,0,0,0.1,0,0.1c0,0,0,0.1,0,0.1l-1.6,7.5
	c0,0.1,0,0.1,0,0.2c0,0.1,0,0.1,0,0.2c0,0,0,0.1,0,0.1c0,0,0,0.1,0,0.1c0,0,0,0,0,0c0,0,0,0,0,0c0,0,0,0,0,0c0,0,0,0,0,0
	c0,0,0.1,0.1,0.1,0.1c0.1,0,0.1,0,0.2,0h1.8c0,0,0,0-0.1,0c0,0,0,0-0.1,0c0,0,0,0,0,0c0,0,0,0,0,0c0,0,0,0,0,0c0,0,0,0,0,0
	c0,0,0-0.1,0-0.1c0,0,0-0.1,0-0.1c0-0.1,0-0.1,0-0.2c0-0.1,0-0.2,0.1-0.3l1.7-7.9c0,0,0,0,0-0.1c0,0,0,0,0-0.1c0-0.1,0-0.1,0-0.1
	c0,0,0-0.1,0-0.1c0,0-0.1-0.1-0.1-0.1c-0.1,0-0.1,0-0.2,0h-0.1h-0.1h-1.8c0,0,0,0,0,0c0,0,0,0,0,0c0,0,0.1,0.1,0.1,0.1
	C84.8,26,84.8,26,84.9,26.1C84.8,26.1,84.9,26.1,84.9,26.1C84.9,26.1,84.9,26.1,84.9,26.1z"/>
<path fill-rule="evenodd" clip-rule="evenodd" fill="#222222" d="M91.9,33.2c-0.1,0-0.1,0.1-0.2,0.1c-0.1,0-0.1,0-0.2,0.1
	c-0.1,0-0.2,0-0.3,0c-0.1,0-0.3,0-0.4,0h0h0h-1.3h-0.1c0,0-0.1,0-0.1,0c-0.1,0-0.2,0-0.3-0.1s-0.2-0.1-0.2-0.2c0,0-0.1-0.1-0.1-0.2
	c0-0.1,0-0.1,0-0.2c0-0.2,0-0.4,0.1-0.7c0.1-0.3,0.1-0.6,0.2-1c0-0.1,0.1-0.3,0.1-0.4c0-0.1,0.1-0.3,0.1-0.4c0.1-0.4,0.3-0.7,0.5-1
	c0.2-0.2,0.5-0.3,1-0.3c0.4,0,0.7,0.1,0.9,0.2c0.2,0.2,0.2,0.4,0.2,0.6c0,0.1,0,0.2,0,0.3c0,0.1,0,0.2-0.1,0.3H89
	c0,0.1-0.1,0.3-0.1,0.3c0,0,0,0,0,0c0,0,0,0,0,0c0,0,0,0.1,0,0.1c0,0,0,0.1,0,0.1c0,0,0,0.1,0,0.1l0,0.1c0,0,0,0,0,0
	c0,0.1-0.1,0.2-0.1,0.3h3.8c0.2,0,0.3,0,0.4-0.1c0.1,0,0.1-0.1,0.2-0.2c0,0,0-0.1,0.1-0.2c0-0.1,0.1-0.2,0.1-0.4
	c0-0.2,0.1-0.4,0.1-0.6c0-0.2,0.1-0.4,0.1-0.7v-0.1v-0.1c0-0.3,0-0.6-0.1-0.9c-0.1-0.3-0.3-0.5-0.5-0.6c-0.2-0.1-0.4-0.1-0.8-0.2
	c-0.4,0-0.8-0.1-1.2-0.1h-0.1h-0.1c-0.4,0-0.8,0-1.2,0.1c-0.4,0-0.6,0.1-0.8,0.2c-0.4,0.2-0.7,0.6-1,1.3c-0.3,0.7-0.6,1.4-0.7,2.3
	c-0.1,0.3-0.1,0.5-0.1,0.8c0,0.3,0,0.5,0,0.8c0,0.4,0,0.7,0.1,1.1c0.1,0.3,0.2,0.6,0.4,0.7c0.1,0.1,0.3,0.2,0.5,0.2
	c0.2,0,0.4,0.1,0.6,0.1c0,0,0.1,0,0.1,0c0,0,0.1,0,0.1,0H91c0,0,0,0,0,0c0,0,0,0,0,0c0.1,0,0.2,0,0.2,0c0.1,0,0.1,0,0.2-0.1l0.1,0
	c0,0,0,0,0.1,0c0.1,0,0.1-0.1,0.2-0.2c0.1-0.1,0.1-0.1,0.2-0.2l0.4-1.7c-0.1,0.1-0.1,0.2-0.2,0.2C92.1,33.1,92,33.1,91.9,33.2z"/>
<path fill-rule="evenodd" clip-rule="evenodd" fill="#222222" d="M95.1,27.8c0,0.1,0,0.1,0,0.2c0,0.1,0,0.1,0,0.2l-1.5,6.4v0v0
	c0,0.1,0,0.1,0,0.2c0,0,0.1,0.1,0.1,0.1c0,0,0.1,0,0.1,0.1c0,0,0.1,0,0.1,0h0h0H96c0,0,0,0-0.1,0l-0.1,0c0,0,0,0,0,0c0,0,0,0,0,0
	c0,0,0,0,0,0c0,0,0,0,0,0c0,0,0,0,0,0c0,0,0,0,0,0c0,0,0-0.1-0.1-0.1c0,0,0-0.1,0-0.2l1.2-4.9c0-0.1,0.1-0.2,0.1-0.3
	c0-0.1,0.1-0.1,0.2-0.1c0.1,0,0.2-0.1,0.3-0.1c0.1,0,0.2,0,0.3,0h0h0c0.2,0,0.3,0,0.5,0c0.1,0,0.2,0.1,0.3,0.1c0,0,0,0.1,0.1,0.2
	c0,0.1,0,0.2,0,0.2v0v0l-1.1,4.8c0,0,0,0,0,0c0,0,0,0,0,0.1v0v0c0,0,0,0.1,0,0.1c0,0,0,0.1,0,0.1c0,0,0,0,0,0c0,0,0,0,0,0
	c0,0,0,0,0.1,0c0,0,0,0,0.1,0c0,0,0,0,0,0c0,0,0,0,0,0h2c0,0,0,0,0,0c0,0,0,0,0,0L99.6,35l-0.1-0.1c0,0,0,0,0-0.1c0,0,0,0,0,0
	c0-0.1-0.1-0.1-0.1-0.2c0-0.1,0-0.1,0-0.2l1.2-5.2c0-0.1,0-0.2,0.1-0.3c0-0.1,0-0.2,0-0.3c0-0.2,0-0.3-0.1-0.5s-0.2-0.3-0.3-0.4
	c-0.1-0.1-0.3-0.2-0.4-0.2c-0.1,0-0.3-0.1-0.4-0.1h-1.4c0,0-0.1,0-0.1,0c0,0-0.1,0-0.1,0c0,0-0.1,0-0.1,0c0,0-0.1,0-0.1,0
	c0,0,0,0,0,0c0,0,0,0,0,0c0,0,0,0-0.1,0.1c0,0,0,0-0.1,0.1c0,0,0,0,0,0c0,0,0,0,0,0l-0.4,0.6l0.1-0.5c0-0.1,0-0.1-0.1-0.2
	c0-0.1-0.1-0.1-0.2-0.1c0,0,0,0-0.1,0c0,0,0,0-0.1,0c0,0,0,0,0,0c0,0,0,0,0,0c0,0,0,0-0.1,0c0,0,0,0-0.1,0h-1.8c0,0,0,0,0,0
	c0,0,0,0,0.1,0c0,0,0,0,0,0l0,0C95,27.7,95,27.8,95.1,27.8C95.1,27.8,95.1,27.8,95.1,27.8z"/>
<path fill-rule="evenodd" clip-rule="evenodd" fill="#222222" d="M101.1,29.2h0.6l-1.2,5.4v0v0c0,0.1,0,0.1,0.1,0.2
	c0,0.1,0.1,0.1,0.1,0.2c0,0,0,0,0,0c0,0,0,0,0,0c0,0,0.1,0,0.1,0.1c0,0,0.1,0,0.1,0l3,0c0,0,0.1,0,0.1,0c0,0,0.1,0,0.1,0
	c0,0,0,0,0.1,0c0,0,0,0,0.1,0c0,0,0,0,0,0c0,0,0.1,0,0.1-0.1c0,0,0-0.1,0.1-0.1c0,0,0,0,0-0.1c0,0,0,0,0-0.1L105,33c0,0,0,0,0,0l0,0
	c0,0,0,0.1-0.1,0.1c0,0,0,0-0.1,0.1c0,0,0,0.1-0.1,0.1c0,0,0,0-0.1,0c0,0,0,0-0.1,0c0,0,0,0-0.1,0.1c0,0-0.1,0.1-0.1,0.1
	c0,0-0.1,0-0.1,0h-1.2c-0.1,0-0.1,0-0.2-0.1c0,0-0.1-0.1-0.1-0.1c0,0,0,0,0,0c0,0,0,0,0,0c0,0,0,0,0-0.1c0,0,0-0.1,0-0.1v-0.1v-0.1
	l0.8-3.5c0,0,0,0,0,0c0,0,0,0,0,0c0,0,0-0.1,0-0.1c0,0,0-0.1,0-0.1c0,0,0,0,0,0c0,0,0,0,0,0c0,0,0.1,0,0.1,0c0,0,0.1,0,0.1,0
	c0,0,0,0,0.1,0c0,0,0.1,0,0.1,0h1c0.1,0,0.1,0,0.2,0c0.1,0,0.1,0,0.2-0.1c0.1,0,0.1-0.1,0.1-0.1c0,0,0.1-0.1,0.1-0.2l0.1-1.2h-1.7
	l0.3-1.3h-0.6c-0.1,0.2-0.2,0.4-0.4,0.6c-0.2,0.2-0.3,0.3-0.6,0.5l-0.2,0.1c-0.1,0-0.1,0.1-0.2,0.1c-0.2,0.1-0.3,0.2-0.5,0.2
	c-0.2,0-0.4,0.1-0.6,0.1L101.1,29.2z"/>
<path fill-rule="evenodd" clip-rule="evenodd" fill="#222222" d="M110.8,33.2c-0.1,0-0.1,0.1-0.2,0.1c-0.1,0-0.1,0-0.2,0.1
	c-0.1,0-0.2,0-0.3,0c-0.1,0-0.3,0-0.4,0h0h0h-1.3h-0.1c0,0-0.1,0-0.1,0c-0.1,0-0.2,0-0.3-0.1c-0.1,0-0.2-0.1-0.2-0.2
	c0,0-0.1-0.1-0.1-0.2c0-0.1,0-0.1,0-0.2c0-0.2,0-0.4,0.1-0.7s0.1-0.6,0.2-1c0-0.1,0.1-0.3,0.1-0.4c0-0.1,0.1-0.3,0.1-0.4
	c0.1-0.4,0.3-0.7,0.5-1c0.2-0.2,0.5-0.3,1-0.3c0.4,0,0.7,0.1,0.9,0.2c0.2,0.2,0.2,0.4,0.2,0.6c0,0.1,0,0.2,0,0.3
	c0,0.1,0,0.2-0.1,0.3h-2.6c0,0.1-0.1,0.3-0.1,0.3c0,0,0,0,0,0c0,0,0,0,0,0c0,0,0,0.1,0,0.1c0,0,0,0.1,0,0.1c0,0,0,0.1,0,0.1l0,0.1
	c0,0,0,0,0,0c0,0.1-0.1,0.2-0.1,0.3h3.8c0.2,0,0.3,0,0.4-0.1c0.1,0,0.1-0.1,0.2-0.2c0,0,0-0.1,0.1-0.2c0-0.1,0.1-0.2,0.1-0.4
	c0-0.2,0.1-0.4,0.1-0.6c0-0.2,0.1-0.4,0.1-0.7v-0.1v-0.1c0-0.3,0-0.6-0.1-0.9c-0.1-0.3-0.3-0.5-0.5-0.6c-0.2-0.1-0.4-0.1-0.8-0.2
	c-0.4,0-0.8-0.1-1.2-0.1h-0.1h-0.1c-0.4,0-0.8,0-1.2,0.1c-0.4,0-0.6,0.1-0.8,0.2c-0.4,0.2-0.7,0.6-1,1.3c-0.3,0.7-0.6,1.4-0.7,2.3
	c-0.1,0.3-0.1,0.5-0.1,0.8c0,0.3,0,0.5,0,0.8c0,0.4,0,0.7,0.1,1.1c0.1,0.3,0.2,0.6,0.4,0.7c0.1,0.1,0.3,0.2,0.5,0.2
	c0.2,0,0.4,0.1,0.6,0.1c0,0,0.1,0,0.1,0c0,0,0.1,0,0.1,0h2.4c0,0,0,0,0,0c0,0,0,0,0,0c0.1,0,0.2,0,0.2,0c0.1,0,0.1,0,0.2-0.1l0.1,0
	c0,0,0,0,0.1,0c0.1,0,0.1-0.1,0.2-0.2c0.1-0.1,0.1-0.1,0.2-0.2l0.4-1.7c-0.1,0.1-0.1,0.2-0.2,0.2C111,33.1,110.9,33.1,110.8,33.2z"
	/>
<path fill-rule="evenodd" clip-rule="evenodd" fill="#222222" d="M114.3,26.8C114.3,26.9,114.3,26.9,114.3,26.8
	C114.3,26.9,114.3,26.9,114.3,26.8c0,0.1,0.1,0.2,0.1,0.2c0,0,0.1,0,0.1,0.1c0,0,0,0,0,0c0,0,0,0,0,0c0,0,0.1,0,0.1,0.1
	c0,0,0.1,0,0.2,0h1.3l0.2-0.9c0,0,0,0,0-0.1l0-0.1c0,0,0,0,0,0c0,0,0,0,0,0c0,0,0,0,0,0c0,0,0,0,0,0c0,0,0,0,0,0c0,0,0,0,0,0
	c0,0-0.1,0-0.1,0c0,0-0.1,0-0.2,0h-1.4L114.3,26.8z M113.8,27.9c0,0,0,0.1,0.1,0.1c0,0,0,0.1,0.1,0.1c0,0.1,0,0.1,0,0.2
	c0,0,0,0.1,0,0.1l-1.5,6.4c0,0.1,0,0.1,0,0.2c0,0.1,0,0.1,0,0.2c0,0.1,0,0.2-0.1,0.2c0,0.1-0.1,0.1-0.1,0.2c0,0,0,0,0,0l0,0
	c-0.1,0-0.2,0.1-0.3,0.1c-0.1,0-0.3,0-0.7,0h0h0c-0.1,0-0.1,0-0.2,0c0,0-0.1,0-0.1,0c0,0-0.1,0-0.1,0c0,0-0.1,0-0.1,0l-0.2,0.2h0.2
	c0,0-0.3,0-0.4,0c0,0-0.1,0-0.2,0c0,0-0.1,0-0.1,0c0,0-0.3,0.9-0.3,0.9c0,0,0,0,0,0.1c0,0,0,0,0,0.1c0,0,0,0,0,0c0,0,0,0,0,0
	c0,0,0,0.1,0,0.1c0,0,0.1,0,0.1,0.1c0,0,0,0,0,0c0,0,0,0,0,0c0,0,0.1,0,0.1,0c0,0,0.1,0,0.1,0h0c0,0,0,0,0,0h2.2h0h0
	c0.2,0,0.5-0.1,0.7-0.2c0.2-0.1,0.4-0.3,0.6-0.5c0.1-0.1,0.2-0.3,0.3-0.5c0.1-0.2,0.1-0.5,0.2-0.7c0,0,0-0.1,0-0.1c0,0,0-0.1,0-0.1
	c0-0.1,0-0.2,0.1-0.2c0-0.1,0-0.2,0.1-0.2l1.4-6.6c0,0,0-0.1,0-0.1c0,0,0-0.1,0-0.1c0,0,0,0,0-0.1c0,0,0-0.1,0-0.1
	c0-0.1-0.1-0.1-0.2-0.1c-0.1,0-0.1,0-0.2,0h-1.8c0,0,0,0,0,0c0,0,0,0,0,0c0,0,0.1,0.1,0.1,0.1C113.8,27.8,113.8,27.8,113.8,27.9
	C113.8,27.8,113.8,27.8,113.8,27.9C113.8,27.9,113.8,27.9,113.8,27.9z"/>
<path fill-rule="evenodd" clip-rule="evenodd" fill="#222222" d="M121,34.2c0.3-0.2,0.5-0.6,0.8-1c0.2-0.4,0.4-0.9,0.5-1.4
	c0.1-0.4,0.2-0.8,0.3-1.2c0.1-0.4,0.1-0.7,0.1-1v0v0v0c-0.1-0.9-0.4-1.4-0.9-1.6c-0.5-0.2-1.1-0.3-1.8-0.3h0h0v1.3h0h0h0
	c0.2,0,0.4,0,0.5,0.1c0.2,0.1,0.3,0.2,0.3,0.3c0,0.1,0.1,0.2,0.1,0.3c0,0.1,0,0.2,0,0.3c0,0.2,0,0.5-0.1,0.7c0,0.3-0.1,0.5-0.2,0.8
	c-0.1,0.3-0.2,0.6-0.3,0.9c-0.1,0.3-0.3,0.6-0.4,0.8c0,0,0,0.1-0.1,0.1c0,0,0,0.1-0.1,0.1c-0.1,0.1-0.2,0.3-0.4,0.3
	c-0.2,0.1-0.4,0.1-0.6,0.1h0h0c-0.3,0-0.5-0.1-0.8-0.3c-0.2-0.2-0.4-0.4-0.4-0.8v0v0v0c0-0.2,0-0.5,0.1-0.8c0.1-0.3,0.1-0.7,0.2-1
	c0.1-0.3,0.2-0.6,0.3-0.9c0.1-0.3,0.3-0.5,0.4-0.7c0.1-0.1,0.2-0.3,0.4-0.3c0.1-0.1,0.3-0.1,0.4-0.2c0.1,0,0.2,0,0.3,0
	c0.1,0,0.2,0,0.2,0v-1.3h-0.1h-0.1c-0.5,0-0.9,0.1-1.3,0.2c-0.4,0.2-0.8,0.4-1.1,0.9c-0.3,0.3-0.5,0.7-0.7,1.1
	c-0.2,0.4-0.3,0.8-0.4,1.2c-0.1,0.3-0.1,0.6-0.2,0.9c0,0.3-0.1,0.6-0.1,0.9c0,0.3,0,0.6,0.1,0.9s0.1,0.5,0.2,0.7
	c0.2,0.2,0.4,0.4,0.8,0.6c0.4,0.1,0.9,0.2,1.3,0.2c0.1,0,0.3,0,0.4,0c0.1,0,0.3,0,0.4-0.1c0.3-0.1,0.6-0.1,0.9-0.3
	C120.4,34.6,120.7,34.5,121,34.2z"/>
<rect y="35.8" fill-rule="evenodd" clip-rule="evenodd" fill="#222222" width="111.5" height="1.5"/>
<path fill-rule="evenodd" clip-rule="evenodd" fill="#222222" d="M0.1,0v21.7h137.5c0,0-0.2-6.9-4.9-13.7C127.9,1.2,118,0,118,0H0.1
	z"/>
<path fill-rule="evenodd" clip-rule="evenodd" fill="#FFFFFF" d="M35.1,7.6c-0.2-0.1-0.5-0.2-0.7-0.2h-4c-0.1,0-0.3,0-0.4,0.1
	s-0.3,0.1-0.4,0.2c-0.1,0.1-0.3,0.2-0.4,0.3C29,8.1,29,8.2,28.9,8.4l-1.4,7.9c0,0.2,0,0.3,0.1,0.5c0.1,0.1,0.2,0.2,0.3,0.3
	c0.1,0.1,0.3,0.1,0.5,0.1c0.2,0,0.3,0,0.5,0c0.2,0,0.3,0,0.5,0c0.2,0,0.3-0.1,0.5-0.1c0.2-0.1,0.3-0.2,0.4-0.3
	c0.1-0.1,0.2-0.3,0.2-0.5l0.9-5c0-0.2,0.1-0.4,0.2-0.7c0.1-0.2,0.3-0.4,0.4-0.6c0.2-0.2,0.4-0.4,0.6-0.5c0.2-0.1,0.4-0.2,0.7-0.3
	c0.2,0,0.4,0,0.6,0c0.2,0,0.4,0,0.7,0c0.2,0,0.4-0.1,0.5-0.2s0.3-0.3,0.3-0.6C35.4,8,35.3,7.8,35.1,7.6z"/>
<path fill-rule="evenodd" clip-rule="evenodd" fill="#FFFFFF" d="M42.6,13.4c-0.1,0.4-0.2,0.7-0.3,1c-0.1,0.3-0.3,0.5-0.5,0.6
	c-0.2,0.2-0.4,0.3-0.7,0.3c-0.3,0.1-0.6,0.1-1.1,0.1c-0.4,0-0.7,0-1-0.1c-0.3-0.1-0.5-0.2-0.6-0.3s-0.2-0.4-0.2-0.6
	c0-0.3,0-0.6,0.1-1l0.4-2.2c0.1-0.8,0.4-1.3,0.8-1.6c0.4-0.3,1-0.5,1.8-0.5c0.8,0,1.4,0.2,1.6,0.5c0.3,0.3,0.3,0.9,0.2,1.6
	L42.6,13.4z M46.1,9.5c0-0.6-0.1-1.1-0.4-1.4c-0.3-0.3-0.7-0.5-1.3-0.6c-0.6-0.1-1.5-0.1-2.5-0.1c-1.1,0-2.1,0-2.8,0.1
	c-0.7,0.1-1.3,0.3-1.7,0.6c-0.4,0.3-0.8,0.8-1,1.5c-0.2,0.7-0.5,1.6-0.7,2.8c-0.2,1.1-0.3,2-0.3,2.6c0,0.6,0.2,1.1,0.5,1.4
	c0.3,0.3,0.8,0.5,1.4,0.6c0.6,0.1,1.5,0.1,2.6,0.1c0.8,0,1.5,0,2-0.1c0.6,0,1-0.1,1.4-0.3c0.4-0.1,0.7-0.3,1-0.5
	c0.3-0.2,0.5-0.5,0.7-0.9c0.2-0.4,0.3-0.9,0.5-1.4c0.1-0.6,0.3-1.2,0.4-2C45.9,10.9,46,10.1,46.1,9.5z"/>
<path fill-rule="evenodd" clip-rule="evenodd" fill="#FFFFFF" d="M54.3,13.3c-0.1,0.4-0.2,0.8-0.3,1.1c-0.1,0.3-0.2,0.5-0.4,0.7
	c-0.2,0.2-0.4,0.3-0.7,0.3c-0.3,0.1-0.7,0.1-1.1,0.1c-0.4,0-0.8,0-1-0.1c-0.3-0.1-0.5-0.2-0.6-0.3c-0.2-0.2-0.3-0.4-0.3-0.6
	c0-0.3,0-0.6,0.1-1l0.4-2.2c0.1-0.4,0.2-0.8,0.3-1c0.1-0.3,0.3-0.5,0.5-0.6c0.2-0.1,0.5-0.2,0.8-0.3c0.3-0.1,0.6-0.1,1-0.1
	c0.4,0,0.7,0,1,0.1c0.3,0.1,0.5,0.2,0.6,0.3c0.1,0.2,0.2,0.4,0.2,0.6c0,0.3,0,0.6-0.1,1L54.3,13.3z M58.8,3.7c0-0.2-2.9-0.2-2.9,0
	l-0.5,3.1c0,0.1-0.1,0.2-0.2,0.4c-0.1,0.2-0.2,0.2-0.3,0.2h-4.1c-0.7,0-1.3,0.2-1.7,0.5c-0.5,0.3-0.8,0.8-1.1,1.3
	c-0.3,0.5-0.4,1.1-0.5,1.6c-0.2,0.6-0.3,1.1-0.4,1.7C47.1,13.3,47,14,47,14.6c0,0.6,0.1,1,0.3,1.4c0.2,0.4,0.6,0.6,1.1,0.8
	c0.5,0.2,1.2,0.3,2.1,0.3h4.7c0.1,0,0.3,0,0.4,0c0.2,0,0.3-0.1,0.5-0.1c0.2-0.1,0.3-0.1,0.4-0.2c0.1-0.1,0.2-0.2,0.2-0.4L58.8,3.7z"
	/>
<path fill-rule="evenodd" clip-rule="evenodd" fill="#FFFFFF" d="M66.2,13.4c-0.1,0.4-0.2,0.7-0.3,1c-0.1,0.3-0.3,0.5-0.5,0.6
	c-0.2,0.2-0.4,0.3-0.7,0.3c-0.3,0.1-0.6,0.1-1.1,0.1c-0.4,0-0.7,0-1-0.1c-0.3-0.1-0.5-0.2-0.6-0.3c-0.1-0.2-0.2-0.4-0.2-0.6
	c0-0.3,0-0.6,0.1-1l0.4-2.2c0.1-0.8,0.4-1.3,0.8-1.6c0.4-0.3,1-0.5,1.8-0.5c0.8,0,1.4,0.2,1.6,0.5c0.3,0.3,0.3,0.9,0.2,1.6
	L66.2,13.4z M69.6,9.5c0-0.6-0.1-1.1-0.4-1.4c-0.3-0.3-0.7-0.5-1.3-0.6c-0.6-0.1-1.5-0.1-2.5-0.1c-1.1,0-2.1,0-2.8,0.1
	c-0.7,0.1-1.3,0.3-1.7,0.6c-0.4,0.3-0.8,0.8-1,1.5c-0.2,0.7-0.5,1.6-0.7,2.8c-0.2,1.1-0.3,2-0.3,2.6c0,0.6,0.2,1.1,0.5,1.4
	s0.8,0.5,1.4,0.6c0.6,0.1,1.5,0.1,2.6,0.1c0.8,0,1.5,0,2-0.1c0.6,0,1-0.1,1.4-0.3c0.4-0.1,0.7-0.3,1-0.5c0.3-0.2,0.5-0.5,0.7-0.9
	c0.2-0.4,0.3-0.9,0.5-1.4c0.1-0.6,0.3-1.2,0.4-2C69.4,10.9,69.5,10.1,69.6,9.5z"/>
<path fill-rule="evenodd" clip-rule="evenodd" fill="#FFFFFF" d="M81.3,7.7c-0.1-0.1-0.3-0.2-0.6-0.2c-0.2,0-0.3,0-0.5,0.1
	C80,7.7,79.9,7.8,79.8,8c-0.1,0.1-0.2,0.3-0.3,0.5c-0.1,0.3-0.3,0.6-0.5,1c-0.2,0.4-0.5,0.9-0.8,1.5c-0.3,0.6-0.7,1.3-1.1,2
	c0,0.1-0.1,0.2-0.2,0.4s-0.2,0.3-0.3,0.5c-0.1,0.2-0.3,0.3-0.4,0.4c-0.1,0.1-0.3,0.2-0.4,0.2c-0.1,0-0.2-0.1-0.3-0.3
	c-0.1-0.2-0.2-0.5-0.3-0.8c-0.1-0.3-0.2-0.7-0.3-1.1c-0.1-0.4-0.2-0.8-0.2-1.2c-0.1-0.4-0.1-0.7-0.2-1c0-0.3-0.1-0.5-0.1-0.6
	c0-0.2,0-0.4-0.1-0.6c0-0.2,0-0.4-0.1-0.6c-0.1-0.3-0.3-0.5-0.6-0.6s-0.6-0.1-0.9-0.1c-0.1,0-0.3,0-0.4,0c-0.2,0-0.3,0-0.5,0.1
	c-0.1,0.1-0.3,0.1-0.4,0.2c-0.1,0.1-0.2,0.2-0.2,0.4c0,0.1,0,0.3,0.1,0.7c0.1,0.4,0.2,0.9,0.3,1.5c0.1,0.6,0.2,1.2,0.4,1.9
	c0.1,0.7,0.3,1.3,0.4,1.9c0.1,0.6,0.3,1.1,0.4,1.5c0.1,0.4,0.2,0.7,0.2,0.7c0.1,0.2,0.3,0.4,0.7,0.5c0.3,0.1,0.7,0.1,1.1,0.1
	c0.4,0,0.7,0,0.9-0.1c0.3-0.1,0.5-0.2,0.7-0.3c0.2-0.1,0.3-0.2,0.5-0.4c0.1-0.1,0.2-0.3,0.3-0.5l0.5-0.9l0.8-1.4
	c0.3-0.5,0.6-1,0.9-1.6l0.9-1.6c0.3-0.5,0.5-0.9,0.7-1.3c0.2-0.4,0.3-0.7,0.4-0.9C81.5,8,81.4,7.8,81.3,7.7z"/>
<path fill-rule="evenodd" clip-rule="evenodd" fill="#FFFFFF" d="M85.6,8.7c0.1-0.5,0-0.9-0.2-1.1c-0.2-0.2-0.5-0.3-1-0.3
	c-0.2,0-0.3,0-0.5,0c-0.2,0-0.3,0.1-0.5,0.1c-0.2,0.1-0.3,0.2-0.4,0.3c-0.1,0.1-0.2,0.3-0.2,0.5l-0.2,1.1l-0.2,1
	c-0.1,0.4-0.2,0.9-0.3,1.4c-0.1,0.6-0.2,1.2-0.4,2l-0.5,2.6c0,0.2,0,0.3,0.1,0.4c0.1,0.1,0.2,0.2,0.3,0.3c0.1,0.1,0.3,0.1,0.4,0.1
	c0.2,0,0.3,0,0.4,0s0.3,0,0.5,0c0.2,0,0.3-0.1,0.5-0.1c0.2-0.1,0.3-0.2,0.4-0.3c0.1-0.1,0.2-0.3,0.2-0.4L85.6,8.7z M86,4
	c-0.3-0.2-0.6-0.2-0.9-0.2c-0.3,0-0.7,0.1-1,0.2c-0.3,0.1-0.5,0.4-0.6,0.8c-0.1,0.5,0,0.8,0.2,0.9c0.2,0.1,0.6,0.2,1,0.2
	c0.2,0,0.4,0,0.5,0c0.2,0,0.3-0.1,0.5-0.1c0.1-0.1,0.3-0.2,0.4-0.3c0.1-0.1,0.2-0.3,0.2-0.5C86.4,4.4,86.3,4.1,86,4z"/>
<path fill-rule="evenodd" clip-rule="evenodd" fill="#FFFFFF" d="M92.5,6.1l3-2l-1.8-0.8L91,5.5l-0.1,0.8L92.5,6.1z M93.5,14.8
	c-0.2,0.2-0.4,0.4-0.6,0.5c-0.2,0.1-0.5,0.2-0.8,0.2c-0.3,0-0.6,0-1,0c-0.3,0-0.6,0-0.9,0c-0.3,0-0.6-0.1-0.8-0.2
	c-0.2-0.1-0.4-0.3-0.5-0.5c-0.1-0.2-0.1-0.5,0-0.9c0.1-0.4,0.2-0.7,0.3-0.9c0.2-0.2,0.3-0.4,0.6-0.5c0.2-0.1,0.5-0.2,0.7-0.3
	c0.3,0,0.6-0.1,0.9-0.1h0.1c0.3,0,0.6,0,0.9,0c0.3,0,0.6,0.1,0.8,0.2c0.2,0.1,0.4,0.3,0.5,0.5c0.1,0.2,0.1,0.6,0,1
	C93.8,14.2,93.7,14.6,93.5,14.8z M95.1,17.1c0.1,0,0.2,0,0.3-0.1c0.1-0.1,0.2-0.1,0.3-0.2c0.1-0.1,0.2-0.2,0.3-0.3
	c0.1-0.1,0.1-0.2,0.2-0.3l1.1-6.4c0.1-0.4,0.1-0.8,0-1.1c-0.1-0.3-0.3-0.6-0.5-0.8c-0.2-0.2-0.5-0.4-0.9-0.5
	c-0.3-0.1-0.7-0.1-1.1-0.1h-5.5c-0.3,0-0.5,0.1-0.6,0.3c-0.2,0.2-0.3,0.4-0.3,0.6c0,0.2,0,0.4,0.1,0.6C88.5,9,88.7,9.1,89,9.1h4.3
	c0.3,0,0.6,0.1,0.9,0.3c0.3,0.2,0.4,0.4,0.3,0.8c0,0.3-0.1,0.5-0.3,0.6c-0.1,0.1-0.4,0.2-0.6,0.2h-2.3c-0.6,0-1.2,0-1.7,0.1
	c-0.5,0.1-1,0.2-1.4,0.4c-0.4,0.2-0.8,0.5-1.1,1c-0.3,0.4-0.5,1-0.6,1.8c-0.1,0.4-0.1,0.7-0.1,1.1c0,0.4,0.1,0.7,0.3,1
	c0.2,0.3,0.4,0.5,0.6,0.7c0.3,0.2,0.6,0.3,1.1,0.3H95.1z"/>
<path fill-rule="evenodd" clip-rule="evenodd" fill="#FFFFFF" d="M105.8,7.6c-0.2-0.1-0.5-0.2-0.7-0.2h-4c-0.1,0-0.3,0-0.4,0.1
	c-0.2,0-0.3,0.1-0.4,0.2c-0.1,0.1-0.3,0.2-0.4,0.3c-0.1,0.1-0.2,0.2-0.2,0.4l-1.4,7.9c0,0.2,0,0.3,0.1,0.5c0.1,0.1,0.2,0.2,0.3,0.3
	c0.1,0.1,0.3,0.1,0.5,0.1c0.2,0,0.3,0,0.5,0c0.2,0,0.3,0,0.5,0c0.2,0,0.3-0.1,0.5-0.1c0.2-0.1,0.3-0.2,0.4-0.3s0.2-0.3,0.2-0.5
	l0.9-5c0-0.2,0.1-0.4,0.2-0.7c0.1-0.2,0.3-0.4,0.4-0.6c0.2-0.2,0.4-0.4,0.6-0.5c0.2-0.1,0.4-0.2,0.7-0.3c0.2,0,0.4,0,0.6,0
	c0.2,0,0.4,0,0.7,0c0.2,0,0.4-0.1,0.5-0.2s0.3-0.3,0.3-0.6C106.2,8,106.1,7.8,105.8,7.6z"/>
<path fill-rule="evenodd" clip-rule="evenodd" fill="#FFFFFF" d="M110.1,8.7c0.1-0.5,0-0.9-0.2-1.1c-0.2-0.2-0.5-0.3-1-0.3
	c-0.2,0-0.3,0-0.5,0c-0.2,0-0.3,0.1-0.5,0.1c-0.2,0.1-0.3,0.2-0.4,0.3c-0.1,0.1-0.2,0.3-0.2,0.5l-0.2,1.1l-0.2,1
	c-0.1,0.4-0.2,0.9-0.3,1.4c-0.1,0.6-0.2,1.2-0.4,2l-0.5,2.6c0,0.2,0,0.3,0.1,0.4c0.1,0.1,0.2,0.2,0.3,0.3c0.1,0.1,0.3,0.1,0.4,0.1
	c0.2,0,0.3,0,0.4,0s0.3,0,0.5,0c0.2,0,0.3-0.1,0.5-0.1c0.2-0.1,0.3-0.2,0.4-0.3c0.1-0.1,0.2-0.3,0.2-0.4L110.1,8.7z M110.5,4
	c-0.3-0.2-0.6-0.2-0.9-0.2c-0.3,0-0.7,0.1-1,0.2c-0.3,0.1-0.5,0.4-0.6,0.8c-0.1,0.5,0,0.8,0.2,0.9c0.2,0.1,0.6,0.2,1,0.2
	c0.2,0,0.4,0,0.5,0c0.2,0,0.3-0.1,0.5-0.1c0.1-0.1,0.3-0.2,0.4-0.3c0.1-0.1,0.2-0.3,0.2-0.5C110.9,4.4,110.8,4.1,110.5,4z"/>
<path fill-rule="evenodd" clip-rule="evenodd" fill="#FFFFFF" d="M118.1,14.8c-0.2,0.2-0.4,0.4-0.6,0.5c-0.2,0.1-0.5,0.2-0.8,0.2
	c-0.3,0-0.6,0-1,0c-0.3,0-0.6,0-0.9,0c-0.3,0-0.6-0.1-0.8-0.2c-0.2-0.1-0.4-0.3-0.5-0.5c-0.1-0.2-0.1-0.5,0-0.9
	c0.1-0.4,0.2-0.7,0.3-0.9c0.2-0.2,0.3-0.4,0.6-0.5c0.2-0.1,0.5-0.2,0.7-0.3c0.3,0,0.6-0.1,0.9-0.1h0.1c0.3,0,0.6,0,0.9,0
	c0.3,0,0.6,0.1,0.8,0.2c0.2,0.1,0.4,0.3,0.5,0.5s0.1,0.6,0,1C118.3,14.2,118.2,14.6,118.1,14.8z M119.6,17.1c0.1,0,0.2,0,0.3-0.1
	c0.1-0.1,0.2-0.1,0.3-0.2c0.1-0.1,0.2-0.2,0.3-0.3c0.1-0.1,0.1-0.2,0.2-0.3l1.1-6.4c0.1-0.4,0.1-0.8,0-1.1c-0.1-0.3-0.3-0.6-0.5-0.8
	c-0.2-0.2-0.5-0.4-0.9-0.5c-0.3-0.1-0.7-0.1-1.1-0.1h-5.5c-0.3,0-0.5,0.1-0.6,0.3c-0.2,0.2-0.3,0.4-0.3,0.6c0,0.2,0,0.4,0.1,0.6
	c0.1,0.2,0.3,0.3,0.5,0.3h4.3c0.3,0,0.6,0.1,0.9,0.3c0.3,0.2,0.4,0.4,0.3,0.8c0,0.3-0.1,0.5-0.3,0.6c-0.1,0.1-0.4,0.2-0.6,0.2h-2.3
	c-0.6,0-1.2,0-1.7,0.1c-0.5,0.1-1,0.2-1.4,0.4c-0.4,0.2-0.8,0.5-1.1,1c-0.3,0.4-0.5,1-0.6,1.8c-0.1,0.4-0.1,0.7-0.1,1.1
	c0,0.4,0.1,0.7,0.3,1c0.1,0.3,0.4,0.5,0.6,0.7c0.3,0.2,0.6,0.3,1.1,0.3H119.6z"/>
</svg>
