<?xml version="1.0" encoding="utf-8"?>
<!-- Generator: Adobe Illustrator 15.1.0, SVG Export Plug-In  -->
<!DOCTYPE svg PUBLIC "-//W3C//DTD SVG 1.1//EN" "http://www.w3.org/Graphics/SVG/1.1/DTD/svg11.dtd" [
	<!ENTITY ns_flows "http://ns.adobe.com/Flows/1.0/">
]>
<svg version="1.1"
	 xmlns="http://www.w3.org/2000/svg" xmlns:xlink="http://www.w3.org/1999/xlink" xmlns:a="http://ns.adobe.com/AdobeSVGViewerExtensions/3.0/"
	 x="0px" y="0px" width="220px" height="50px" viewBox="-14.3 -9.5 220 50" enable-background="new -14.3 -9.5 220 50"
	 xml:space="preserve">
<defs>
</defs>
<path id="Shape_28_" fill="#222222" d="M13.3,0H6.9C6,0.4,3.3,0.4,2.4,0.4c-0.4,0-1.8,0-2,0.2C0,0.9-0.2,2,0.4,2.2
	C1.5,2.4,7.7,1.8,10,2c0,0.7-4.9,10.3-5.8,12.8c-0.9,2.2-1.8,4.4-2.6,6.6c-1.1,3.1-1.8,3.5-0.7,5.3c0.4,0.7,0.4,1.1,1.3,1.1
	c0.2-0.4,0.2-2.2,0.7-3.5c0.4-0.9,0.9-2.2,1.3-3.1C5.1,19,6,17,6.9,14.8C7.5,13,11.3,3.5,12.2,2.5C15.1,2.2,19.3,3.4,22,4
	c1.1,0.2,3.1,1.1,3.8,2c0.9,1.5-0.9,2.9-1.8,3.3c-2.6,1.3-8.9,4.2-12,5.1C9.8,15,9.5,14.8,7.1,15c-0.4,0.4-0.4,0.7-0.7,1.5
	c0.7,0.9,4.4,3.5,5.6,4.4c3.3,2.4,16.8,12.1,20.2,9.7c0-0.9-0.2-0.7-2.2-1.8c-0.9-0.4-2-1.1-2.9-1.5c-2-1.1-15.3-8.1-16-9.9
	c5.8-1.3,20.2-6.6,15.7-12.8c-0.9-1.1-1.8-2-3.3-2.6c-3.8-1.8-8.6-1.1-10.4-2L13.3,0L13.3,0z"/>
<path id="Shape_13_" fill="#222222" d="M106.1,15.4c3.8-1.5,2.9,5.3,0.4,6.2c-1.8,0.7-2.4-0.9-2.4-2.6
	C104.4,17.4,104.8,15.9,106.1,15.4z M100.8,12.3l-2.2,10.6c-0.2,0.7,0,1.8-0.7,2.2c0,1.3-0.7,2.9-0.7,4.2c0.9,0,4.4,0.4,4.9-0.4
	c0-0.9,0.2-1.1,0.4-2c0.2-1.1,0.4-2.9,0.9-4l0,0c4.2,3.7,8.4,0.9,9.5-4c0.9-4.2-0.7-7.9-5.1-7.3c-1.3,0.2-2,0.9-2.6,1.3v-1.1h-3.3
	h-0.4c-0.4,0-0.2,0-0.4-0.2l-0.2,0.4L100.8,12.3L100.8,12.3z"/>
<path id="Shape_12_" fill="#222222" d="M44.1,18.1c-0.2,1.3-0.7,3.1-1.8,3.5c-2.2,0.9-2.6-1.1-2.4-2.9
	C40.5,14.1,44.5,14.3,44.1,18.1z M45,13.7c-0.9-0.7-1.1-1.3-2.4-1.5c-6.4-1.8-9.5,8.6-5.8,11.9c2,1.8,4.9,0.7,6.4-0.7v1.1h4.4
	l3.8-16.9h-4.6c-0.9,1.5-0.7,4.6-1.6,6.2L45,13.7L45,13.7z"/>
<path id="Shape_11_" fill="#222222" d="M97.9,25.1c0.7-0.4,0.4-1.5,0.7-2.2c-1.1-0.7-1.8-1.5-2.6-2.4c-1.3-1.3-1.1-1.3,0.2-2.9
	c0.9-0.9,1.6-1.8,2.4-2.6c0.7-0.9,1.6-2,2.4-2.4l0.2-0.4c0.7-0.7,0.7-0.7,1.1-1.3c0.4-0.6,2.9-2.2,0.7-4.6c-1.1,0.2-4.4,4.4-5.6,5.1
	c-1.1,0.9-4.2,4.9-5.3,5.3l-2.6-2.6C88.8,13,85.1,9.7,84,8.6c-0.4-0.4-0.9-0.7-1.3-1.3c-1.6-1.5-2.4-0.9-0.7,0.9
	c1.1,1.1,8.9,9.3,9.1,9.7c0.2,0.7-5.6,7.5-6.2,8.4c-0.4,0.4-0.7,0.9-1.1,1.3c-0.4,0.4-0.7,0.7-0.7,1.5c1.3,0.4,3.3,0.2,4-0.4
	l6.4-7.5c0.9,0.2,2.9,2.4,4.7,4L97.9,25.1L97.9,25.1z"/>
<path id="Shape_10_" fill="#222222" d="M128.1,17.4c0.9-3.5,5.1-3.5,4.7-0.2C131.6,17.6,129.2,17.4,128.1,17.4z M137.1,19.6
	c0.7-2,0.4-4-0.4-5.5c-1.8-2.9-10.4-3.7-13.1,2.4c-1.6,3.7,0.4,7.5,3.8,8.1c4,0.7,8.4-0.4,9.3-3.3c-5.3-0.7-4-0.4-5.6,0.4
	c-1.1,0.7-3.3,0.7-3.5-2.2L137.1,19.6L137.1,19.6z"/>
<path id="Shape_9_" fill="#222222" d="M55,17.4c0.9-3.3,5.1-3.5,4.7,0H55z M63.6,21.4l-4.7-0.4c-1.1,2-4.7,1.1-4.2-1.3h9.5
	c0.4-4.4-0.2-7.1-4.7-7.5c-10.4-1.3-12.2,10.8-5.6,12.5c4,1.1,8.6-0.2,9.8-3.1L63.6,21.4z"/>
<path id="Shape_8_" fill="#222222" d="M78.4,17.4c0.9-3.3,4.9-3.7,4.7,0H82h-0.9h-0.2h-0.7H78.4z M87.5,19.6
	c1.1-3.1,0.2-7.1-4.9-7.5c-7.3-0.9-10.4,5.3-8.6,9.9c2,4.4,11.1,4,13.1-0.4l-4.4-0.4c-1.6,1.5-4.2,1.8-4.4-1.3h9.5L87.5,19.6z"/>
<path id="Shape_7_" fill="#222222" d="M30.1,17.4h-4.7C26.4,13.9,30.6,13.9,30.1,17.4z M33.9,21.4l-4.4-0.4
	c-0.7,0.4-1.6,1.3-2.9,1.1c-1.1-0.2-1.6-1.1-1.6-2.4h9.3c0.9-1.8,1.1-6.8-4.9-7.5C19.3,11,17.3,22.9,24.4,24.7
	c4,0.9,8.2-0.2,9.5-3.1V21.4L33.9,21.4z"/>
<path id="Shape_6_" fill="#222222" d="M171.1,15.4c2-0.7,2.6,0.9,2.4,2.9c-0.2,1.5-0.9,3.1-2.2,3.5c-3.8,1.1-3.5-5.5-0.4-6.2
	L171.1,15.4z M178.1,19.2c0.4-2-0.2-4-1.1-5.3c-0.9-1.1-2.6-1.8-4.9-2c-7.3-0.2-9.8,7.5-6.6,11c2.2,2.4,10.6,3.5,12.6-4V19.2z"/>
<path id="Shape_5_" fill="#222222" d="M183.9,16.1c0-1.1,0.4-1.3,1.6-1.3c1.1,0,1.3,0.7,1.8,1.1l4.2-0.4c-0.4-2.2-2-2.9-4.4-3.1
	c-2.2-0.2-4.9,0.2-6.2,1.5c-1.6,1.3-2.2,3.5-0.4,5.1c1.6,1.3,4.2,0.9,5.6,2c0.2,1.3-0.4,1.8-1.8,1.8c-1.3,0-1.8-0.4-2-1.5l-4.7,0.4
	c0,2.6,2,3.5,4.7,3.7c9.1,0.7,9.5-5.3,7.5-6.8c-1.6-1.1-4.7-0.9-6-2L183.9,16.1z"/>
<path id="Shape_4_" fill="#222222" d="M159.1,20.5c0.2,2.4-2.9,2.6-4,0.4l-4.7,0.4c0.4,5.5,9.5,3.7,11.1,2.4
	c2.2-1.5,3.5-5.7-1.8-6.6l-2.4-0.4c-1.3-0.7-0.7-1.8,0.7-2c1.3-0.2,1.6,0.4,2,1.1l4.2-0.4c-0.4-2.2-1.8-2.9-4.2-3.3
	c-3.1-0.2-7.1,0.7-7.8,3.5c-0.9,4.2,4.4,3.7,6.6,4.8H159.1z"/>
<path id="Shape_3_" fill="#222222" d="M143.1,15.2c2.2-1.8,3.5,0.4,3.5,0.4c0.2,0.2,3.5-0.2,4.2-0.4c-0.4-2.4-2-3.1-4.7-3.3
	c-7.5-0.7-8.6,4.9-6.4,6.6c1.6,1.1,4.7,0.9,5.6,2c0.2,1.1-0.7,1.8-1.8,1.8c-1.8,0-1.6-0.7-2.2-1.5l-4.4,0.4c0.2,5.3,9.3,4,11.5,2.2
	c1.6-1.3,2.2-4.2,0.2-5.5C146.2,16.3,142.9,17.6,143.1,15.2z"/>
<path id="Shape_2_" fill="#222222" d="M119.4,14.5l0.4-2.2h-4.4l-2.6,12.3h4.7c1.6-2.9,0.2-9.5,5.8-8.6l1.6-3.7
	c-1.6-0.4-2.4-0.7-3.5,0.2l-2,2H119.4L119.4,14.5z"/>
<path id="Shape_1_" fill="#222222" d="M102.1,29.1c0.4,0.2,0.2,0.2,0.7,0.7c0.9,0.9,1.3,0.9,2,0c-0.2-0.9-1.6-2-2.2-2.4
	c-0.2,0.7-0.2,0.9-0.4,2L102.1,29.1L102.1,29.1z"/>
</svg>
